<?xml version="1.0" encoding="utf-8" ?>
<svg baseProfile="full" height="200mm" version="1.1" viewBox="0,0,200,200" width="200mm" xmlns="http://www.w3.org/2000/svg" xmlns:ev="http://www.w3.org/2001/xml-events" xmlns:xlink="http://www.w3.org/1999/xlink"><defs /><rect fill="#1a1a1a" height="200" width="200" x="0" y="0" /><text alignment-baseline="middle" fill="#e1ed5e" style="dominant-baseline: central; font-size:9.0px; font-family:Arial;" text-anchor="middle" x="100.0" y="100.0">2022</text><line stroke="#e1ed5e" stroke-width="0.3" x1="100.0" x2="100.0" y1="15.0" y2="10.0" /><path d="M 100.0 14.0 a86.0,86.0 0 0,1 42.46469731375804,11.215312516191453" fill="none" id="id1" stroke="none" /><text fill="#e1ed5e" style="font-size:6.75px; font-family:Arial;" text-anchor="middle"><textPath startOffset="22.20632615414155" xlink:href="#id1">January</textPath></text><line stroke="#e1ed5e" stroke-width="0.3" x1="143.23703022742887" x2="145.7803849466894" y1="26.81831364943548" y2="22.513508569990506" /><path d="M 143.74570117128098 25.957352633546492 a86.0,86.0 0 0,1 28.547481713284135,27.462654790039103" fill="none" id="id2" stroke="none" /><text fill="#e1ed5e" style="font-size:6.75px; font-family:Arial;" text-anchor="middle"><textPath startOffset="19.985693538727396" xlink:href="#id2">February</textPath></text><line stroke="#e1ed5e" stroke-width="0.3" x1="172.23445277983987" x2="176.4835382374775" y1="55.19839476539836" y2="52.563006222186495" /><path d="M 173.08426987136738 54.67131705675599 a86.0,86.0 0 0,1 12.851231095245387,41.99856678651699" fill="none" id="id3" stroke="none" /><text fill="#e1ed5e" style="font-size:6.75px; font-family:Arial;" text-anchor="middle"><textPath startOffset="22.20632615414155" xlink:href="#id3">March</textPath></text><line stroke="#e1ed5e" stroke-width="0.3" x1="184.98032266829074" x2="189.97916517819016" y1="98.17113171792111" y2="98.06355123074" /><path d="M 185.9800911702706 98.14961562048488 a86.0,86.0 0 0,1 -9.607161424134198,41.387399972396054" fill="none" id="id4" stroke="none" /><text fill="#e1ed5e" style="font-size:6.75px; font-family:Arial;" text-anchor="middle"><textPath startOffset="21.466115282336823" xlink:href="#id4">April</textPath></text><line stroke="#e1ed5e" stroke-width="0.3" x1="174.80103733775053" x2="179.2010983576182" y1="140.37084112569926" y2="142.7455964860345" /><path d="M 175.68104954172406 140.8457921977663 a86.0,86.0 0 0,1 -30.038265399797805,32.042727171017184" fill="none" id="id5" stroke="none" /><text fill="#e1ed5e" style="font-size:6.75px; font-family:Arial;" text-anchor="middle"><textPath startOffset="22.206326154141568" xlink:href="#id5">May</textPath></text><line stroke="#e1ed5e" stroke-width="0.3" x1="143.8653032363475" x2="146.44561519142675" y1="172.8068346515853" y2="177.08958963109032" /><path d="M 144.38136562736335 173.6633856474863 a86.0,86.0 0 0,1 -40.68145358897372,12.25698825130547" fill="none" id="id6" stroke="none" /><text fill="#e1ed5e" style="font-size:6.75px; font-family:Arial;" text-anchor="middle"><textPath startOffset="21.466115282336833" xlink:href="#id6">June</textPath></text><line stroke="#e1ed5e" stroke-width="0.3" x1="102.19456741930631" x2="102.32365962044197" y1="184.97166512339345" y2="189.96999836594603" /><path d="M 102.22038585953345 185.97133177190398 a86.0,86.0 0 0,1 -42.740103519485714,-10.115201625700543" fill="none" id="id7" stroke="none" /><text fill="#e1ed5e" style="font-size:6.75px; font-family:Arial;" text-anchor="middle"><textPath startOffset="22.20632615414155" xlink:href="#id7">July</textPath></text><line stroke="#e1ed5e" stroke-width="0.3" x1="58.666819895761336" x2="56.23545636021788" y1="174.27360380694188" y2="178.64263932499728" /><path d="M 58.180547188652646 175.14741091055294 a86.0,86.0 0 0,1 -31.652253787137756,-30.449443065178592" fill="none" id="id8" stroke="none" /><text fill="#e1ed5e" style="font-size:6.75px; font-family:Arial;" text-anchor="middle"><textPath startOffset="22.20632615414155" xlink:href="#id8">August</textPath></text><line stroke="#e1ed5e" stroke-width="0.3" x1="26.63291911575756" x2="22.317208475507996" y1="142.92168965132927" y2="145.44649492493687" /><path d="M 25.769776987707644 143.4266507060508 a86.0,86.0 0 0,1 -11.730757126820373,-40.83630448921669" fill="none" id="id9" stroke="none" /><text fill="#e1ed5e" style="font-size:6.75px; font-family:Arial;" text-anchor="middle"><textPath startOffset="21.46611528233685" xlink:href="#id9">September</textPath></text><path d="M 79.58551787078972 104.9243191809786 l -30.858039526384136 7.44348227720864 a52.743094238322215,52.743094238322215 0 0,0 -0.2052947940053264,-0.8844045995110038 l 30.981594886320018 -6.911209020349062" fill="#a5ff21" stroke="none" /><path d="M 79.50377843672027 104.57218783832718 l -17.14109702542172 3.8237445430248598 a38.562409560343184,38.562409560343184 0 0,0 -0.13894579945167537,-0.6491085175997773 l 17.204376863597833 -3.5281222060089186" fill="#ff970d" stroke="none" /><line stroke="#e1ed5e" stroke-width="0.3" x1="15.007084014347285" x2="10.007500721073583" y1="101.09737516637583" y2="101.16192664675087" /><path d="M 14.007167355692545 101.11028546245083 a86.0,86.0 0 0,1 10.666146001902534,-42.60595125391555" fill="none" id="id10" stroke="none" /><text fill="#e1ed5e" style="font-size:6.75px; font-family:Arial;" text-anchor="middle"><textPath startOffset="22.20632615414155" xlink:href="#id10">October</textPath></text><path d="M 79.46518482838121 95.60439243477599 l -7.7831689303798335 -1.666036725720238 a28.959484717635846,28.959484717635846 0 0,0 0.10853685699079303,-0.48654944795077437 l 7.753337686387003 1.7997643432209716" fill="#ff0000" stroke="none" /><path d="M 79.54389044137918 95.25157060432595 l -50.05039459433074 -11.618082327714559 a72.38114280571973,72.38114280571973 0 0,0 0.29216889474109214,-1.2112286919666724 l 49.84299289932883 12.477896251340628" fill="#3dffab" stroke="none" /><path d="M 79.71946130924805 94.55025226153421 l -41.363671553175166 -11.115167054430934 a63.831066563965685,63.831066563965685 0 0,0 0.2942710329643385,-1.0586494749972535 l 41.16621374964446 11.825527832847131" fill="#31ff3d" stroke="none" /><path d="M 79.81627453868168 94.20196356495316 l -24.648974777864314 -7.08073710784973 a46.64583388369876,46.64583388369876 0 0,0 0.22832936416910268,-0.7698131073710732 l 24.523439516583505 7.503979601967343" fill="#f5ff19" stroke="none" /><path d="M 80.38941819471856 92.48833698450439 l -25.70263960494067 -9.84517283770995 a48.52368272716873,48.52368272716873 0 0,0 0.3054830400012419,-0.7774210161751512 l 25.529363015057736 10.286142858780863" fill="#dbff1b" stroke="none" /><path d="M 80.52162464483688 92.15188598940014 l -14.597734347433832 -5.881634446722095 a36.73808984099142,36.73808984099142 0 0,0 0.24138379348967803,-0.5845300023260047 l 14.494328867057954 6.132039019501411" fill="#ff7b0b" stroke="none" /><line stroke="#e1ed5e" stroke-width="0.3" x1="26.266209847984243" x2="21.928928074336255" y1="57.711370442889674" y2="55.22380399835377" /><path d="M 25.398753493254645 57.213857153982495 a86.0,86.0 0 0,1 29.58750427330803,-30.492523968695096" fill="none" id="id11" stroke="none" /><text fill="#e1ed5e" style="font-size:6.75px; font-family:Arial;" text-anchor="middle"><textPath startOffset="21.46611528233685" xlink:href="#id11">November</textPath></text><path d="M 83.84228863543731 86.58626213691792 l -12.432111143881274 -10.32083543307176 a37.157878311534795,37.157878311534795 0 0,0 0.41278755406752593,-0.4886102641190815 l 12.252612976326624 10.533304646819959" fill="#ff810b" stroke="none" /><path d="M 85.31137513191541 84.99185889309783 l -28.04839640990085 -28.658522831280752 a61.10016798017159,61.10016798017159 0 0,0 0.7579817893776246,-0.7291778808330823 l 27.550931376910796 29.137083798876148" fill="#42ff2d" stroke="none" /><path d="M 85.57189188830299 84.74124197986013 l -8.31087970376228 -8.789350714068405 a33.09642126520495,33.09642126520495 0 0,0 0.4173176869347878,-0.38785130908135484 l 8.158354133032635 8.931106609224408" fill="#ff4306" stroke="none" /><path d="M 85.83668400450813 84.49514656593479 l -42.48994798647562 -46.514560302195655 a84.0,84.0 0 0,0 1.0759560496161145,-0.9660039649228849 l 41.68298094926353 47.23906327588782" fill="#4dd2ff" stroke="none" /><path d="M 86.10567301691215 84.25364557470407 l -26.515352982653447 -30.049684758743187 a61.07552242821735,61.07552242821735 0 0,0 0.794290663144487,-0.6888010360087287 l 25.994168520862186 30.501650788171595" fill="#42ff2d" stroke="none" /><line stroke="#e1ed5e" stroke-width="0.3" x1="56.762969772571076" x2="54.21961505331055" y1="26.818313649435495" y2="22.513508569990535" /><path d="M 56.25429882871897 25.957352633546506 a86.0,86.0 0 0,1 42.265352541879196,-11.944610805530505" fill="none" id="id12" stroke="none" /><text fill="#e1ed5e" style="font-size:6.75px; font-family:Arial;" text-anchor="middle"><textPath startOffset="22.20632615414155" xlink:href="#id12">December</textPath></text></svg>