<?xml version="1.0" encoding="utf-8" ?>
<svg baseProfile="full" height="200mm" version="1.1" viewBox="0,0,200,200" width="200mm" xmlns="http://www.w3.org/2000/svg" xmlns:ev="http://www.w3.org/2001/xml-events" xmlns:xlink="http://www.w3.org/1999/xlink"><defs /><rect fill="#1a1a1a" height="200" width="200" x="0" y="0" /><text alignment-baseline="middle" fill="#e1ed5e" style="dominant-baseline: central; font-size:9.0px; font-family:Arial;" text-anchor="middle" x="100.0" y="100.0">2023</text><line stroke="#e1ed5e" stroke-width="0.3" x1="100.0" x2="100.0" y1="15.0" y2="10.0" /><path d="M 100.0 14.0 a86.0,86.0 0 0,1 42.46469731375804,11.215312516191453" fill="none" id="id13" stroke="none" /><text fill="#e1ed5e" style="font-size:6.75px; font-family:Arial;" text-anchor="middle"><textPath startOffset="22.20632615414155" xlink:href="#id13">January</textPath></text><line stroke="#e1ed5e" stroke-width="0.3" x1="143.23703022742887" x2="145.7803849466894" y1="26.81831364943548" y2="22.513508569990506" /><path d="M 143.74570117128098 25.957352633546492 a86.0,86.0 0 0,1 28.547481713284135,27.462654790039103" fill="none" id="id14" stroke="none" /><text fill="#e1ed5e" style="font-size:6.75px; font-family:Arial;" text-anchor="middle"><textPath startOffset="19.985693538727396" xlink:href="#id14">February</textPath></text><path d="M 115.68641384162765 86.03803664274999 l 23.737249708470937 -21.12774876256714 a52.77796078253702,52.77796078253702 0 0,0 0.5981706709530024,0.683812481155201 l -24.097412243001788 20.716020725208992" fill="#c2ff1e" stroke="none" /><path d="M 117.04232023915458 87.72973835380427 l 32.98735150492399 -23.75048868348957 a61.64789135999526,61.64789135999526 0 0,0 0.6126255686920121,0.8665154209473911 l -33.39128969341989 23.179146762210387" fill="#4eff2b" stroke="none" /><path d="M 117.2510076193507 88.02491185347247 l 44.50885237756831 -30.896597015254414 a75.18152496092368,75.18152496092368 0 0,0 0.7288151959885475,1.069446369041543 l -45.03409203922559 30.125872622942463" fill="#40ffc4" stroke="none" /><path d="M 117.45458315368197 88.32363383020206 l 26.41744551593943 -17.67213598851985 a52.783420489059495,52.783420489059495 0 0,0 0.4986861058260404,0.7595331520602147 l -26.717728257123397 17.214784772481963" fill="#c2ff1e" stroke="none" /><line stroke="#e1ed5e" stroke-width="0.3" x1="172.23445277983987" x2="176.4835382374775" y1="55.19839476539836" y2="52.563006222186495" /><path d="M 173.08426987136738 54.67131705675599 a86.0,86.0 0 0,1 12.851231095245387,41.99856678651699" fill="none" id="id15" stroke="none" /><text fill="#e1ed5e" style="font-size:6.75px; font-family:Arial;" text-anchor="middle"><textPath startOffset="22.20632615414155" xlink:href="#id15">March</textPath></text><path d="M 117.84615892207809 88.93136811851018 l 53.538476766234254 -33.20589564446945 a84.0,84.0 0 0,0 0.7515368068551043,1.2353289071716742 l -54.10212937137558 32.279398964090696" fill="#4dd2ff" stroke="none" /><path d="M 119.04729006885535 91.15688171328212 l 12.74041728351592 -5.915015556176007 a35.04655265849651,35.04655265849651 0 0,0 0.2493273221714967,0.5493597048159402 l -12.840346922650765 5.694833842518005" fill="#ff2803" stroke="none" /><path d="M 119.61058180528143 92.48833698450437 l 37.93534155507217 -14.530803061777947 a61.623076896268714,61.623076896268714 0 0,0 0.3708987696238035,0.9938243033251647 l -38.1798449131976 13.87565562142345" fill="#4fff2b" stroke="none" /><path d="M 120.87857604477298 97.74499172005257 l 11.666289752506142 -1.2600275005226411 a32.73413762879502,32.73413762879502 0 0,0 0.0556836897340035,0.560727156493632 l -11.686250567922375 1.059024813324574" fill="#ff0000" stroke="none" /><path d="M 120.91429891909075 98.10471618934814 l 35.76726791817495 -3.241281197080256 a56.91383240659584,56.91383240659584 0 0,0 0.08001953712454807,0.9764410349745696 l -35.817761939118995 2.625126244897918" fill="#8aff24" stroke="none" /><path d="M 120.94382443527127 98.46500227214037 l 34.27666982726509 -2.5121777766069826 a55.368606774622435,55.368606774622435 0 0,0 0.06148396128062432,0.9511296675658585 l -34.31483437955013 1.921789044788089" fill="#9fff22" stroke="none" /><path d="M 120.96714384426684 98.82574320788733 l 40.630185514497605 -2.275477845698198 a61.69385425796817,61.69385425796817 0 0,0 0.050255201929636915,1.0608078839129362 l -40.66333432466074 1.575758855162262" fill="#4eff2b" stroke="none" /><line stroke="#e1ed5e" stroke-width="0.3" x1="184.98032266829074" x2="189.97916517819016" y1="98.17113171792111" y2="98.06355123074" /><path d="M 185.9800911702706 98.14961562048488 a86.0,86.0 0 0,1 -9.607161424134198,41.387399972396054" fill="none" id="id16" stroke="none" /><text fill="#e1ed5e" style="font-size:6.75px; font-family:Arial;" text-anchor="middle"><textPath startOffset="21.466115282336823" xlink:href="#id16">April</textPath></text><path d="M 120.92983693683757 101.71520430193887 l 31.672193536706512 2.595542562989873 a52.77836818691114,52.77836818691114 0 0,0 -0.08199597952072091,0.9048188013963832 l -31.622822960908717 -3.1403427529348265" fill="#c2ff1e" stroke="none" /><path d="M 120.89721153311464 102.0752229133903 l 31.5955421279188 3.1376335967573463 a52.75095316592231,52.75095316592231 0 0,0 -0.09750812359651928,0.9028041234245517 l -31.536851702821227 -3.681034042066689" fill="#c2ff1e" stroke="none" /><path d="M 120.8583938346157 102.4346265915055 l 31.578442344065003 3.6858885712280776 a52.792826163097665,52.792826163097665 0 0,0 -0.11312369047299546,0.9017071164616687 l -31.51031714434516 -4.2289134419771415" fill="#c2ff1e" stroke="none" /><path d="M 120.49622156327973 104.57218783832717 l 31.346707545330624 6.992656405858303 a53.117181033566425,53.117181033566425 0 0,0 -0.20675087224038535,0.890677346438528 l -31.221696107159683 -7.531202409645396" fill="#bdff1f" stroke="none" /><path d="M 120.41448212921028 104.9243191809786 l 41.16758883790649 9.930320351309623 a63.34833683873025,63.34833683873025 0 0,0 -0.26482224917456704,1.0578332452294796 l -40.990555274436865 -10.6374814359365" fill="#3aff2e" stroke="none" /><path d="M 120.32669344350535 105.2749913415812 l 30.85465310898541 8.00710791697373 a52.87669047548516,52.87669047548516 0 0,0 -0.23621257381836616,0.8790348604124762 l -30.71225245882527 -8.537033710561754" fill="#c1ff1e" stroke="none" /><path d="M 118.64920377521936 109.65438752849418 l 27.305071079271762 14.13538834524681 a51.74696912404575,51.74696912404575 0 0,0 -0.4163105066891158,0.7875025879450682 l -27.05770806435775 -14.603305948278011" fill="#d0ff1d" stroke="none" /><line stroke="#e1ed5e" stroke-width="0.3" x1="174.80103733775053" x2="179.2010983576182" y1="140.37084112569926" y2="142.7455964860345" /><path d="M 175.68104954172406 140.8457921977663 a86.0,86.0 0 0,1 -30.038265399797805,32.042727171017184" fill="none" id="id17" stroke="none" /><text fill="#e1ed5e" style="font-size:6.75px; font-family:Arial;" text-anchor="middle"><textPath startOffset="22.206326154141568" xlink:href="#id17">May</textPath></text><path d="M 117.94076556474637 110.91462005526583 l 27.26873796438032 16.58947680876302 a52.918565302320886,52.918565302320886 0 0,0 -0.4801360908634355,0.7741322571313962 l -26.979137233848924 -17.056405397259688" fill="#c0ff1e" stroke="none" /><path d="M 117.14729908036423 112.12312394758627 l 31.847932759687055 22.516457811260043 a60.0036112870565,60.0036112870565 0 0,0 -0.6035226302031285,0.8382401477712179 l -31.45563033710832 -23.06133156448239" fill="#63ff29" stroke="none" /><path d="M 116.93607887273984 112.41649034213515 l 14.90764711499412 10.929369059872508 a39.48483298685955,39.48483298685955 0 0,0 -0.4065785842778264,0.5446784557628075 l -14.717307264021201 -11.184360395144632" fill="#ff730a" stroke="none" /><line stroke="#e1ed5e" stroke-width="0.3" x1="143.8653032363475" x2="146.44561519142675" y1="172.8068346515853" y2="177.08958963109032" /><path d="M 144.38136562736335 173.6633856474863 a86.0,86.0 0 0,1 -40.68145358897372,12.25698825130547" fill="none" id="id18" stroke="none" /><text fill="#e1ed5e" style="font-size:6.75px; font-family:Arial;" text-anchor="middle"><textPath startOffset="21.466115282336833" xlink:href="#id18">June</textPath></text><line stroke="#e1ed5e" stroke-width="0.3" x1="102.19456741930631" x2="102.32365962044197" y1="184.97166512339345" y2="189.96999836594603" /><path d="M 102.22038585953345 185.97133177190398 a86.0,86.0 0 0,1 -42.740103519485714,-10.115201625700543" fill="none" id="id19" stroke="none" /><text fill="#e1ed5e" style="font-size:6.75px; font-family:Arial;" text-anchor="middle"><textPath startOffset="22.20632615414155" xlink:href="#id19">July</textPath></text><line stroke="#e1ed5e" stroke-width="0.3" x1="58.666819895761336" x2="56.23545636021788" y1="174.27360380694188" y2="178.64263932499728" /><path d="M 58.180547188652646 175.14741091055294 a86.0,86.0 0 0,1 -31.652253787137756,-30.449443065178592" fill="none" id="id20" stroke="none" /><text fill="#e1ed5e" style="font-size:6.75px; font-family:Arial;" text-anchor="middle"><textPath startOffset="22.20632615414155" xlink:href="#id20">August</textPath></text><line stroke="#e1ed5e" stroke-width="0.3" x1="26.63291911575756" x2="22.317208475507996" y1="142.92168965132927" y2="145.44649492493687" /><path d="M 25.769776987707644 143.4266507060508 a86.0,86.0 0 0,1 -11.730757126820373,-40.83630448921669" fill="none" id="id21" stroke="none" /><text fill="#e1ed5e" style="font-size:6.75px; font-family:Arial;" text-anchor="middle"><textPath startOffset="21.46611528233685" xlink:href="#id21">September</textPath></text><line stroke="#e1ed5e" stroke-width="0.3" x1="15.007084014347285" x2="10.007500721073583" y1="101.09737516637583" y2="101.16192664675087" /><path d="M 14.007167355692545 101.11028546245083 a86.0,86.0 0 0,1 10.666146001902534,-42.60595125391555" fill="none" id="id22" stroke="none" /><text fill="#e1ed5e" style="font-size:6.75px; font-family:Arial;" text-anchor="middle"><textPath startOffset="22.20632615414155" xlink:href="#id22">October</textPath></text><line stroke="#e1ed5e" stroke-width="0.3" x1="26.266209847984243" x2="21.928928074336255" y1="57.711370442889674" y2="55.22380399835377" /><path d="M 25.398753493254645 57.213857153982495 a86.0,86.0 0 0,1 29.58750427330803,-30.492523968695096" fill="none" id="id23" stroke="none" /><text fill="#e1ed5e" style="font-size:6.75px; font-family:Arial;" text-anchor="middle"><textPath startOffset="21.46611528233685" xlink:href="#id23">November</textPath></text><line stroke="#e1ed5e" stroke-width="0.3" x1="56.762969772571076" x2="54.21961505331055" y1="26.818313649435495" y2="22.513508569990535" /><path d="M 56.25429882871897 25.957352633546506 a86.0,86.0 0 0,1 42.265352541879196,-11.944610805530505" fill="none" id="id24" stroke="none" /><text fill="#e1ed5e" style="font-size:6.75px; font-family:Arial;" text-anchor="middle"><textPath startOffset="22.20632615414155" xlink:href="#id24">December</textPath></text></svg>